<svg width="10" height="10" viewBox="0 0 10 10" fill="none" xmlns="http://www.w3.org/2000/svg">
<path id="Vector" d="M9.79248 8.72173C9.92457 8.85382 9.99878 9.03297 9.99878 9.21977C9.99878 9.40658 9.92457 9.58573 9.79248 9.71782C9.66039 9.84991 9.48124 9.92412 9.29443 9.92412C9.10763 9.92412 8.92848 9.84991 8.79639 9.71782L5.07627 5.99653L1.35498 9.71665C1.22289 9.84874 1.04374 9.92295 0.856933 9.92295C0.670129 9.92295 0.490976 9.84874 0.358886 9.71665C0.226796 9.58456 0.152588 9.40541 0.152588 9.2186C0.152588 9.0318 0.226796 8.85265 0.358886 8.72056L4.08017 5.00044L0.360057 1.27915C0.227967 1.14706 0.15376 0.967906 0.15376 0.781102C0.15376 0.594299 0.227967 0.415146 0.360057 0.283056C0.492148 0.150965 0.671301 0.0767577 0.858104 0.0767577C1.04491 0.0767577 1.22406 0.150965 1.35615 0.283056L5.07627 4.00434L8.79756 0.28247C8.92965 0.150379 9.1088 0.0761719 9.2956 0.0761719C9.48241 0.0761719 9.66156 0.150379 9.79365 0.28247C9.92574 0.41456 9.99995 0.593713 9.99995 0.780516C9.99995 0.96732 9.92574 1.14647 9.79365 1.27856L6.07236 5.00044L9.79248 8.72173Z" fill="white"/>
</svg>
