<svg width="15" height="15" viewBox="0 0 15 15" fill="none" xmlns="http://www.w3.org/2000/svg">
<g id="fluent-mdl2:status-error-full" clip-path="url(#clip0_3_379)">
<path id="Vector" d="M7.5 0C8.18848 0 8.85254 0.0878906 9.49219 0.263672C10.1318 0.439453 10.7275 0.693359 11.2793 1.02539C11.8311 1.35742 12.3364 1.74805 12.7954 2.19727C13.2544 2.64648 13.6475 3.15186 13.9746 3.71338C14.3018 4.2749 14.5532 4.87305 14.729 5.50781C14.9048 6.14258 14.9951 6.80664 15 7.5C15 8.18848 14.9121 8.85254 14.7363 9.49219C14.5605 10.1318 14.3066 10.7275 13.9746 11.2793C13.6426 11.8311 13.252 12.3364 12.8027 12.7954C12.3535 13.2544 11.8481 13.6475 11.2866 13.9746C10.7251 14.3018 10.127 14.5532 9.49219 14.729C8.85742 14.9048 8.19336 14.9951 7.5 15C6.81152 15 6.14746 14.9121 5.50781 14.7363C4.86816 14.5605 4.27246 14.3066 3.7207 13.9746C3.16895 13.6426 2.66357 13.252 2.20459 12.8027C1.74561 12.3535 1.35254 11.8481 1.02539 11.2866C0.698242 10.7251 0.446777 10.127 0.270996 9.49219C0.0952148 8.85742 0.00488281 8.19336 0 7.5C0 6.81152 0.0878906 6.14746 0.263672 5.50781C0.439453 4.86816 0.693359 4.27246 1.02539 3.7207C1.35742 3.16895 1.74805 2.66357 2.19727 2.20459C2.64648 1.74561 3.15186 1.35254 3.71338 1.02539C4.2749 0.698242 4.87305 0.446777 5.50781 0.270996C6.14258 0.0952148 6.80664 0.00488281 7.5 0ZM8.32764 7.5L10.8325 4.99512L10.0049 4.16748L7.5 6.67236L4.99512 4.16748L4.16748 4.99512L6.67236 7.5L4.16748 10.0049L4.99512 10.8325L7.5 8.32764L10.0049 10.8325L10.8325 10.0049L8.32764 7.5Z" fill="#EA7746"/>
</g>
<defs>
<clipPath id="clip0_3_379">
<rect width="15" height="15" fill="white"/>
</clipPath>
</defs>
</svg>
