<svg width="15" height="15" viewBox="0 0 15 15" fill="none" xmlns="http://www.w3.org/2000/svg">
<g id="mingcute:menu-fill" clip-path="url(#clip0_40_18096)">
<g id="Group">
<path id="Vector" d="M12.5 10.9375C12.7408 10.9376 12.9722 11.0304 13.1465 11.1965C13.3207 11.3627 13.4244 11.5895 13.436 11.8299C13.4475 12.0704 13.3661 12.3061 13.2086 12.4883C13.0512 12.6704 12.8296 12.7849 12.59 12.8081L12.5 12.8125H2.5C2.25924 12.8124 2.02775 12.7196 1.85351 12.5535C1.67926 12.3873 1.57562 12.1605 1.56405 11.9201C1.55248 11.6796 1.63387 11.4439 1.79136 11.2617C1.94885 11.0796 2.17036 10.9651 2.41 10.9419L2.5 10.9375H12.5ZM12.5 6.5625C12.7486 6.5625 12.9871 6.66127 13.1629 6.83709C13.3387 7.0129 13.4375 7.25136 13.4375 7.5C13.4375 7.74864 13.3387 7.9871 13.1629 8.16291C12.9871 8.33873 12.7486 8.4375 12.5 8.4375H2.5C2.25136 8.4375 2.0129 8.33873 1.83709 8.16291C1.66127 7.9871 1.5625 7.74864 1.5625 7.5C1.5625 7.25136 1.66127 7.0129 1.83709 6.83709C2.0129 6.66127 2.25136 6.5625 2.5 6.5625H12.5ZM12.5 2.1875C12.7486 2.1875 12.9871 2.28627 13.1629 2.46209C13.3387 2.6379 13.4375 2.87636 13.4375 3.125C13.4375 3.37364 13.3387 3.6121 13.1629 3.78791C12.9871 3.96373 12.7486 4.0625 12.5 4.0625H2.5C2.25136 4.0625 2.0129 3.96373 1.83709 3.78791C1.66127 3.6121 1.5625 3.37364 1.5625 3.125C1.5625 2.87636 1.66127 2.6379 1.83709 2.46209C2.0129 2.28627 2.25136 2.1875 2.5 2.1875H12.5Z" fill="white"/>
</g>
</g>
<defs>
<clipPath id="clip0_40_18096">
<rect width="15" height="15" fill="white"/>
</clipPath>
</defs>
</svg>
