<svg width="15" height="15" viewBox="0 0 15 15" fill="none" xmlns="http://www.w3.org/2000/svg">
<g id="mingcute:user-follow-2-fill" clip-path="url(#clip0_3_320)">
<g id="Group">
<path id="Vector" fill-rule="evenodd" clip-rule="evenodd" d="M6.875 1.25C6.0462 1.25 5.25134 1.57924 4.66529 2.16529C4.07924 2.75134 3.75 3.5462 3.75 4.375C3.75 5.2038 4.07924 5.99866 4.66529 6.58471C5.25134 7.17076 6.0462 7.5 6.875 7.5C7.7038 7.5 8.49866 7.17076 9.08471 6.58471C9.67076 5.99866 10 5.2038 10 4.375C10 3.5462 9.67076 2.75134 9.08471 2.16529C8.49866 1.57924 7.7038 1.25 6.875 1.25ZM6.875 8.125C5.37813 8.125 4.01562 8.55875 3.01375 9.17C2.51375 9.475 2.08625 9.835 1.7775 10.2262C1.47375 10.61 1.25 11.0706 1.25 11.5625C1.25 12.0906 1.50688 12.5069 1.87688 12.8038C2.22688 13.085 2.68875 13.2712 3.17937 13.4012C4.16562 13.6619 5.48187 13.75 6.875 13.75C7.01875 13.75 7.1625 13.7488 7.30313 13.7469C7.4078 13.7454 7.51043 13.7177 7.60161 13.6663C7.69279 13.6149 7.76959 13.5414 7.82496 13.4525C7.88033 13.3637 7.9125 13.2623 7.91851 13.1578C7.92452 13.0533 7.90419 12.949 7.85938 12.8544C7.62184 12.3529 7.49907 11.8049 7.5 11.25C7.5 10.4675 7.73937 9.7425 8.14812 9.14187C8.20888 9.05262 8.24548 8.94914 8.25435 8.84154C8.26322 8.73393 8.24406 8.62586 8.19875 8.52786C8.15343 8.42986 8.08349 8.34527 7.99576 8.28233C7.90802 8.2194 7.80548 8.18027 7.69813 8.16875C7.42938 8.14 7.15438 8.125 6.875 8.125ZM13.5675 10.0425C13.6813 9.92462 13.7443 9.76675 13.7429 9.60287C13.7415 9.439 13.6758 9.28224 13.5599 9.16636C13.444 9.05048 13.2872 8.98475 13.1234 8.98333C12.9595 8.9819 12.8016 9.0449 12.6838 9.15875L10.695 11.1475L9.81125 10.2638C9.69337 10.1499 9.5355 10.0869 9.37162 10.0883C9.20775 10.0898 9.05099 10.1555 8.93511 10.2714C8.81923 10.3872 8.7535 10.544 8.75208 10.7079C8.75066 10.8717 8.81365 11.0296 8.9275 11.1475L10.2087 12.4288C10.2726 12.4926 10.3484 12.5433 10.4318 12.5779C10.5153 12.6124 10.6047 12.6302 10.695 12.6302C10.7853 12.6302 10.8747 12.6124 10.9582 12.5779C11.0416 12.5433 11.1174 12.4926 11.1812 12.4288L13.5675 10.0425Z" fill="black" fill-opacity="0.25"/>
</g>
</g>
<defs>
<clipPath id="clip0_3_320">
<rect width="15" height="15" fill="white"/>
</clipPath>
</defs>
</svg>
