<svg width="36" height="36" viewBox="0 0 36 36" fill="none" xmlns="http://www.w3.org/2000/svg">
<g id="clarity:user-solid" clip-path="url(#clip0_144_11592)">
<path id="Vector" d="M30.61 24.52C29.0031 22.779 27.0532 21.3896 24.8829 20.4394C22.7127 19.4891 20.3692 18.9985 18 18.9985C15.6308 18.9985 13.2873 19.4891 11.1171 20.4394C8.94681 21.3896 6.99685 22.779 5.39 24.52C5.14111 24.7938 5.00221 25.15 5 25.52V31.52C5.00526 31.9144 5.16561 32.2908 5.44635 32.5678C5.72709 32.8448 6.10562 33.0001 6.5 33H29.5C29.8978 33 30.2794 32.842 30.5607 32.5607C30.842 32.2794 31 31.8978 31 31.5V25.5C30.9929 25.1369 30.8544 24.7887 30.61 24.52Z" fill="black"/>
<path id="Vector_2" d="M18 17C21.866 17 25 13.866 25 10C25 6.13401 21.866 3 18 3C14.134 3 11 6.13401 11 10C11 13.866 14.134 17 18 17Z" fill="black"/>
</g>
<defs>
<clipPath id="clip0_144_11592">
<rect width="36" height="36" fill="white"/>
</clipPath>
</defs>
</svg>
